<svg id="Layer_1" data-name="Layer 1" xmlns="http://www.w3.org/2000/svg" viewBox="0 0 564.06 400.83"><defs><style>.cls-1{fill:#000000;}</style></defs><path class="cls-1" d="M362.59,234H564.06V399.64H531V267.17h-2.88q-68.1,0-136.2-.05c-2.05,0-2.84.61-3.59,2.53C363,334,317.08,375.75,250.42,394.34c-21.1,5.88-42.76,7.53-64.59,5.89a200.52,200.52,0,0,1-178-144.31,197.08,197.08,0,0,1-7.32-70,200.54,200.54,0,0,1,150-179.54A197.43,197.43,0,0,1,214.87.55a200.4,200.4,0,0,1,173,129.19c.85,2.25,1.82,2.91,4.17,2.9q67.85-.1,135.68,0h3.12V.15h33.26V165.79H362.71C344.33,78.51,262.22,23.05,177.39,34,93.28,44.87,27.29,118.61,31.93,208.76a166.72,166.72,0,0,0,146.54,157C269.28,376.58,345.6,315.19,362.59,234Z"/></svg>